<?xml version="1.0" encoding="UTF-8" standalone="no"?>
<!-- Created with Inkscape (http://www.inkscape.org/) -->

<svg
   width="48"
   height="48"
   viewBox="0 0 0.75 0.75"
   version="1.1"
   id="svg1"
   xml:space="preserve"
   inkscape:export-filename="OneDrive\Masaüstü\pijonWhite2.png"
   inkscape:export-xdpi="1024"
   inkscape:export-ydpi="1024"
   inkscape:version="1.3.2 (091e20e, 2023-11-25, custom)"
   sodipodi:docname="pijonLogo.svg"
   xmlns:inkscape="http://www.inkscape.org/namespaces/inkscape"
   xmlns:sodipodi="http://sodipodi.sourceforge.net/DTD/sodipodi-0.dtd"
   xmlns="http://www.w3.org/2000/svg"
   xmlns:svg="http://www.w3.org/2000/svg"><sodipodi:namedview
     id="namedview1"
     pagecolor="#ffffff"
     bordercolor="#000000"
     borderopacity="0.25"
     inkscape:showpageshadow="2"
     inkscape:pageopacity="0.0"
     inkscape:pagecheckerboard="0"
     inkscape:deskcolor="#d1d1d1"
     inkscape:document-units="mm"
     inkscape:zoom="11.745006"
     inkscape:cx="23.073637"
     inkscape:cy="28.43762"
     inkscape:window-width="1920"
     inkscape:window-height="1013"
     inkscape:window-x="-9"
     inkscape:window-y="-9"
     inkscape:window-maximized="1"
     inkscape:current-layer="layer1" /><defs
     id="defs1" /><g
     inkscape:label="Katman 1"
     inkscape:groupmode="layer"
     id="layer1"><rect
       style="fill:#ffffff;fill-opacity:1;stroke:none;stroke-width:0.0354331;stroke-linecap:butt;stroke-linejoin:round;stroke-miterlimit:4;stroke-dasharray:none;stroke-opacity:1;paint-order:normal"
       id="rect3"
       width="0.56406957"
       height="0.56539989"
       x="0.095785394"
       y="0.097115748" /><rect
       style="fill:none;stroke:#64b5f6;stroke-width:0.035433;stroke-linecap:butt;stroke-linejoin:round;stroke-miterlimit:4;stroke-dasharray:none;stroke-opacity:1;paint-order:normal"
       id="rect1"
       width="0.55511808"
       height="0.5551182"
       x="0.097440958"
       y="0.097440898" /><path
       style="display:inline;fill:#64b5f6;fill-opacity:1;stroke:none"
       d="m 0.36619997,0.62520187 c -0.0105372,-0.005294 -0.0105372,-0.0207888 0,-0.0260829 0.002853,-0.001434 0.006181,-0.001721 0.019914,-0.001723 l 0.0164883,-1.53e-6 v -0.0216563 c 0,-0.0166585 -2.8397e-4,-0.0216607 -0.00123,-0.0216755 -6.7676e-4,-1.057e-5 -0.006015,-6.5603e-4 -0.0118627,-0.001434 -0.0166566,-0.002217 -0.0347913,-0.007678 -0.0456513,-0.0137481 -0.00246,-0.001375 -0.004977,-0.002202 -0.005594,-0.001838 -6.1723e-4,3.6394e-4 -0.0199484,0.0135262 -0.0429582,0.0292495 -0.0230098,0.0157233 -0.0454781,0.0304306 -0.0499297,0.032683 -0.0121991,0.006172 -0.0219568,0.008526 -0.0374957,0.009043 -0.0138201,4.6002e-4 -0.0206898,-3.9051e-4 -0.0316839,-0.003923 -0.0135365,-0.004349 -0.0308444,-0.0147926 -0.0345284,-0.0208343 -0.00285,-0.004674 -0.002577,-0.0124661 5.6875e-4,-0.0162041 0.001354,-0.001609 0.0188633,-0.0161019 0.0389091,-0.0322056 0.0200458,-0.0161037 0.0362411,-0.0294851 0.0359897,-0.0297366 -2.5147e-4,-2.5147e-4 -0.007942,5.4644e-4 -0.0170903,0.001773 -0.0164751,0.002209 -0.0166695,0.002212 -0.020474,3.4895e-4 -0.007995,-0.003916 -0.010879,-0.0140444 -0.006032,-0.0211854 0.003564,-0.005251 0.14718871,-0.18780799 0.15221231,-0.1934729 0.0176728,-0.0199288 0.0433191,-0.0329451 0.0702529,-0.0356554 0.004763,-4.7928e-4 0.008902,-0.001113 0.009198,-0.001409 2.9584e-4,-2.9583e-4 0.005826,-0.0201716 0.0122894,-0.0441684 0.009445,-0.0350655 0.0126022,-0.0453697 0.0160851,-0.0524899 0.008989,-0.0183767 0.0243705,-0.0301168 0.0450275,-0.0343682 0.017655,-0.003633 0.0349922,-2.1741e-4 0.0501969,0.009891 0.0142264,0.009458 0.0227468,0.0231012 0.0282479,0.0452327 l 0.003202,0.0128802 0.0188753,0.005193 c 0.0103814,0.002856 0.0207412,0.006061 0.0230218,0.007123 0.005492,0.002557 0.008158,0.006973 0.008158,0.0135117 0,0.004543 -4.0616e-4,0.005525 -0.003779,0.009141 -0.00532,0.005703 -0.0103629,0.005985 -0.0257522,0.00144 -0.007752,-0.002289 -0.0114086,-0.002981 -0.0116004,-0.002193 -1.5405e-4,6.3264e-4 0.004399,0.0199549 0.0101174,0.0429383 0.0131064,0.0526752 0.014287,0.0590349 0.0149759,0.0806709 0.002249,0.0706514 -0.031387,0.1356775 -0.0902741,0.17451832 -0.0187366,0.0123583 -0.0425915,0.0221741 -0.0629332,0.0258956 l -0.008926,0.001633 v 0.0225156 0.0225156 h 0.0261251 c 0.0242408,0 0.0264054,1.4296e-4 0.0300102,0.001982 0.004367,0.002228 0.007849,0.007899 0.007849,0.0127836 0,0.004885 -0.003482,0.0105557 -0.007849,0.0127836 -0.003762,0.001919 -0.005698,0.001982 -0.0612641,0.00198 -0.052663,-1.4e-6 -0.0576606,-1.4299e-4 -0.0608048,-0.001723 z M 0.22000066,0.577091 c 0.003248,-7.8967e-4 0.008223,-0.002496 0.0110555,-0.003792 0.002832,-0.001296 0.0228604,-0.0144503 0.0445073,-0.0292319 0.0344376,-0.0235157 0.0392087,-0.0270768 0.0381633,-0.0284843 -6.5715e-4,-8.8473e-4 -0.003001,-0.003991 -0.005209,-0.006902 -0.002208,-0.002911 -0.005277,-0.007508 -0.00682,-0.0102155 -0.001543,-0.002707 -0.002878,-0.005037 -0.002967,-0.005177 -8.887e-5,-1.401e-4 -0.005196,4.7919e-4 -0.0113483,0.001376 l -0.0111867,0.001631 -0.0477851,0.0383603 c -0.0262818,0.0210981 -0.0479258,0.0387302 -0.0480977,0.0391824 -3.9552e-4,0.001041 0.009442,0.003942 0.0165547,0.004883 0.006655,8.8022e-4 0.015317,2.698e-4 0.023133,-0.00163 z M 0.42767501,0.5230601 c 0.0134885,-0.002033 0.0209942,-0.003981 0.0325247,-0.008443 0.0476082,-0.0184212 0.0866468,-0.0637354 0.0998393,-0.11588898 0.005,-0.0197666 0.006361,-0.0455082 0.003483,-0.0658504 -8.2629e-4,-0.005839 -0.009815,-0.0440672 -0.0199743,-0.0849522 -0.0175577,-0.0706572 -0.0186585,-0.0746173 -0.022241,-0.0800146 -0.0155212,-0.0233837 -0.0538232,-0.0190694 -0.0630573,0.007103 -7.5193e-4,0.002131 -0.006073,0.0212945 -0.0118247,0.042585 -0.005752,0.0212905 -0.0106738,0.0394486 -0.0109381,0.0403511 -3.7638e-4,0.001285 7.5522e-4,0.001997 0.00522,0.003284 0.0152808,0.004403 0.0327462,0.015061 0.045101,0.027522 0.0162956,0.0164357 0.0277684,0.0391742 0.031034,0.0615077 0.00179,0.0122441 7.3286e-4,0.0318306 -0.002356,0.0436389 -0.008813,0.0336892 -0.0334269,0.0619095 -0.0650394,0.0745678 -0.0120963,0.004844 -0.0193199,0.006215 -0.0702225,0.013327 -0.0266643,0.003726 -0.0484805,0.007161 -0.0484805,0.007633 0,0.001951 0.0137993,0.01507 0.0204666,0.0194577 0.0196779,0.0129496 0.0487846,0.0183443 0.0764652,0.014172 z m 0.0576876,-0.30877187 c -0.005716,-0.002986 -0.008212,-0.007526 -0.007654,-0.013916 0.001245,-0.0142322 0.0178505,-0.018179 0.0266289,-0.006329 0.002727,0.003682 0.002743,0.0115707 2.969e-5,0.0152047 -0.005176,0.006932 -0.0119463,0.008728 -0.0190046,0.00504 z M 0.290387,0.46449963 c 0.0349226,-0.00487 0.0640681,-0.008855 0.0647677,-0.008855 9.9703e-4,0 0.001132,-0.002075 6.2518e-4,-0.009598 -7.5913e-4,-0.0112637 7.8451e-4,-0.0284909 0.003682,-0.0410937 0.001121,-0.004875 0.002238,-0.009761 0.002482,-0.0108576 3.657e-4,-0.001642 -4.2825e-4,-0.002308 -0.0045,-0.003772 -0.0117485,-0.004225 -0.0312456,-0.0202292 -0.0390969,-0.0320933 -0.001447,-0.002187 -0.002946,-0.003976 -0.003331,-0.003976 -6.2257e-4,0 -0.0920476,0.11573243 -0.0939479,0.11892607 -5.9638e-4,0.001002 -2.791e-5,0.001167 0.002527,7.3374e-4 0.001813,-3.0773e-4 0.0318692,-0.004544 0.0667919,-0.009414 z m 0.11606957,-0.0162255 c 0.0195722,-0.002847 0.0238313,-0.003819 0.0327011,-0.007461 0.0217844,-0.008946 0.0387086,-0.0280105 0.0462856,-0.0521402 0.002007,-0.00639 0.002307,-0.009337 0.002301,-0.0226059 -5.71e-6,-0.0146753 -1.2839e-4,-0.0156092 -0.003214,-0.0244623 -0.004711,-0.0135172 -0.0100042,-0.0219184 -0.0203144,-0.0322405 -0.0136884,-0.0137041 -0.0278963,-0.0205805 -0.0477961,-0.0231325 -0.0163402,-0.002096 -0.0347983,0.001823 -0.049748,0.0105609 -0.008353,0.004882 -0.0202733,0.0160633 -0.0279699,0.026235 l -0.004303,0.005687 0.001863,0.003468 c 0.003503,0.006519 0.0127083,0.0175702 0.0186087,0.0223396 0.007426,0.006002 0.0157512,0.009998 0.0246317,0.0118217 0.003808,7.82e-4 0.008303,0.002135 0.009989,0.003007 0.003029,0.001567 0.007204,0.008392 0.007204,0.0117784 0,9.0378e-4 -0.00152,0.00619 -0.003379,0.0117478 -0.004416,0.0132077 -0.007451,0.0283661 -0.00815,0.0407076 -6.9089e-4,0.0121967 6.535e-5,0.0171392 0.002622,0.0171392 0.001008,0 0.009408,-0.001102 0.0186668,-0.002449 z"
       id="path2" /></g></svg>
